# Blender v2.74 (sub 0) OBJ File: ''
# www.blender.org
mtllib arrow.mtl
o Box1
v 0.000517 0.064600 0.116000
v 0.000517 0.064600 -0.084000
v 0.500000 0.564600 -0.084000
v 0.500000 0.564600 0.116000
v -0.500000 0.564600 -0.084000
v -0.500000 0.564600 0.116000
vt 0.000000 1.000000
vt 0.000000 0.000000
vt 1.000000 0.000000
vt 1.000000 1.000000
vn 0.000000 1.000000 0.000000
vn 0.707500 -0.706700 0.000000
vn -0.706700 -0.707500 0.000000
vn 0.000000 0.000000 1.000000
vn -0.000000 0.000000 -1.000000
usemtl Standard
s 1
f 3/1/1 5/2/1 6/3/1 4/4/1
f 3/1/2 4/2/2 1/3/2 2/4/2
f 6/1/3 5/2/3 2/3/3 1/4/3
f 4/1/4 6/2/4 1/3/4
f 2/1/5 5/3/5 3/4/5
o Box
v 0.000517 0.564600 0.116000
v 0.000517 0.564600 -0.084000
v 0.500000 1.064600 -0.084000
v 0.500000 1.064600 0.116000
v -0.500000 1.064600 -0.084000
v -0.500000 1.064600 0.116000
vt 0.000000 1.000000
vt 0.000000 0.000000
vt 1.000000 0.000000
vt 1.000000 1.000000
vn 0.000000 1.000000 0.000000
vn 0.707500 -0.706700 0.000000
vn -0.706700 -0.707500 0.000000
vn 0.000000 0.000000 1.000000
vn -0.000000 0.000000 -1.000000
usemtl Standard
s 1
f 3/1/1 5/2/1 6/3/1 4/4/1
f 3/1/2 4/2/2 1/3/2 2/4/2
f 6/1/3 5/2/3 2/3/3 1/4/3
f 4/1/4 6/2/4 1/3/4
f 2/1/5 5/3/5 3/4/5
